<?xml version="1.0" standalone="no"?>
<!DOCTYPE svg PUBLIC "-//W3C//DTD SVG 20010904//EN"
 "http://www.w3.org/TR/2001/REC-SVG-20010904/DTD/svg10.dtd">
<svg version="1.0" xmlns="http://www.w3.org/2000/svg"
 width="32.000000pt" height="32.000000pt" viewBox="0 0 32.000000 32.000000"
 preserveAspectRatio="xMidYMid meet">

<g transform="translate(0.000000,32.000000) scale(0.100000,-0.100000)"
fill="#000000" stroke="none">
<path d="M130 310 c-21 -7 -17 -8 20 -9 66 -2 111 -28 138 -81 16 -32 22 -38
22 -22 0 32 -66 100 -108 112 -41 11 -38 11 -72 0z"/>
<path d="M80 250 c0 -5 24 -10 53 -10 63 0 80 -10 75 -41 -3 -22 -8 -24 -65
-27 l-63 -3 0 -54 c0 -42 4 -55 15 -55 11 0 15 12 15 45 l0 45 38 0 c47 0 62
-14 62 -57 0 -23 5 -33 15 -33 18 0 21 51 4 82 -8 14 -8 23 0 31 17 17 13 52
-7 70 -21 19 -142 25 -142 7z"/>
<path d="M302 127 c-28 -110 -152 -146 -243 -69 l-33 27 18 -27 c18 -28 81
-58 119 -58 67 1 136 63 152 138 10 47 -1 39 -13 -11z"/>
</g>
</svg>
